<svg xmlns="http://www.w3.org/2000/svg" xmlns:xlink="http://www.w3.org/1999/xlink" width="500" zoomAndPan="magnify" viewBox="0 0 375 374.999991" height="500" preserveAspectRatio="xMidYMid meet" version="1.0"><path fill="#8c52ff" d="M 51.742188 249.546875 C 56.4375 249.546875 61.933594 240.832031 61.933594 229.660156 C 61.964844 225.847656 61.332031 222.148438 60.039062 218.5625 C 60.039062 218.5625 60.039062 218.257812 60.039062 218.105469 C 53.210938 221.8125 47.148438 226.511719 41.855469 232.195312 C 42.425781 242.121094 47.347656 249.546875 51.742188 249.546875 Z M 51.742188 249.546875 " fill-opacity="1" fill-rule="nonzero"/><path fill="#8c52ff" d="M 360.378906 0 L 14.621094 0 C 13.660156 0 12.710938 0.09375 11.769531 0.28125 C 10.828125 0.46875 9.914062 0.746094 9.027344 1.113281 C 8.140625 1.480469 7.296875 1.929688 6.5 2.464844 C 5.699219 2.996094 4.960938 3.605469 4.28125 4.28125 C 3.605469 4.960938 2.996094 5.699219 2.464844 6.5 C 1.929688 7.296875 1.480469 8.140625 1.113281 9.027344 C 0.746094 9.914062 0.46875 10.828125 0.28125 11.769531 C 0.09375 12.710938 0 13.660156 0 14.621094 L 0 360.378906 C 0 361.339844 0.09375 362.289062 0.28125 363.230469 C 0.46875 364.171875 0.746094 365.085938 1.113281 365.972656 C 1.480469 366.859375 1.929688 367.703125 2.464844 368.5 C 2.996094 369.300781 3.605469 370.039062 4.28125 370.71875 C 4.960938 371.394531 5.699219 372.003906 6.5 372.535156 C 7.296875 373.070312 8.140625 373.519531 9.027344 373.886719 C 9.914062 374.253906 10.828125 374.53125 11.769531 374.71875 C 12.710938 374.90625 13.660156 375 14.621094 375 L 360.378906 375 C 361.339844 375 362.289062 374.90625 363.230469 374.71875 C 364.171875 374.53125 365.085938 374.253906 365.972656 373.886719 C 366.859375 373.519531 367.703125 373.070312 368.5 372.535156 C 369.300781 372.003906 370.039062 371.394531 370.71875 370.71875 C 371.394531 370.039062 372.003906 369.300781 372.535156 368.5 C 373.070312 367.703125 373.519531 366.859375 373.886719 365.972656 C 374.253906 365.085938 374.53125 364.171875 374.71875 363.230469 C 374.90625 362.289062 375 361.339844 375 360.378906 L 375 14.621094 C 375 13.660156 374.90625 12.710938 374.71875 11.769531 C 374.53125 10.828125 374.253906 9.914062 373.886719 9.027344 C 373.519531 8.140625 373.070312 7.296875 372.535156 6.5 C 372.003906 5.699219 371.394531 4.960938 370.71875 4.28125 C 370.039062 3.605469 369.300781 2.996094 368.5 2.464844 C 367.703125 1.929688 366.859375 1.480469 365.972656 1.113281 C 365.085938 0.746094 364.171875 0.46875 363.230469 0.28125 C 362.289062 0.09375 361.339844 0 360.378906 0 Z M 220.910156 321.0625 L 154.089844 321.0625 C 153.371094 321.058594 152.652344 321.023438 151.933594 320.953125 C 151.21875 320.878906 150.507812 320.773438 149.800781 320.632812 C 149.09375 320.488281 148.394531 320.3125 147.707031 320.105469 C 147.015625 319.894531 146.339844 319.652344 145.675781 319.375 C 145.007812 319.097656 144.359375 318.789062 143.722656 318.449219 C 143.089844 318.109375 142.472656 317.742188 141.875 317.339844 C 141.273438 316.941406 140.695312 316.511719 140.140625 316.054688 C 139.582031 315.597656 139.050781 315.113281 138.539062 314.605469 C 138.03125 314.09375 137.546875 313.5625 137.089844 313.003906 C 136.632812 312.449219 136.203125 311.871094 135.804688 311.269531 C 135.402344 310.671875 135.03125 310.054688 134.691406 309.417969 C 134.351562 308.785156 134.046875 308.132812 133.769531 307.46875 C 133.492188 306.804688 133.25 306.125 133.039062 305.4375 C 132.828125 304.75 132.652344 304.050781 132.511719 303.34375 C 132.371094 302.636719 132.265625 301.925781 132.191406 301.210938 C 132.121094 300.492188 132.085938 299.773438 132.082031 299.054688 C 132.085938 297.699219 132.152344 296.347656 132.285156 295 C 132.417969 293.648438 132.617188 292.3125 132.882812 290.984375 C 133.148438 289.65625 133.480469 288.34375 133.871094 287.046875 C 134.265625 285.75 134.722656 284.476562 135.242188 283.222656 C 135.761719 281.972656 136.339844 280.75 136.976562 279.554688 C 137.617188 278.359375 138.3125 277.199219 139.0625 276.074219 C 139.816406 274.945312 140.621094 273.859375 141.480469 272.8125 C 142.339844 271.761719 143.25 270.761719 144.207031 269.800781 C 145.164062 268.84375 146.167969 267.933594 147.214844 267.074219 C 148.261719 266.214844 149.347656 265.40625 150.472656 264.652344 C 151.597656 263.898438 152.757812 263.203125 153.953125 262.5625 C 155.148438 261.921875 156.371094 261.34375 157.621094 260.824219 C 158.871094 260.304688 160.144531 259.847656 161.441406 259.453125 C 162.738281 259.058594 164.050781 258.726562 165.378906 258.460938 C 166.707031 258.195312 168.042969 257.992188 169.394531 257.859375 C 170.742188 257.722656 172.09375 257.652344 173.445312 257.652344 L 201.554688 257.652344 C 202.90625 257.652344 204.257812 257.722656 205.605469 257.859375 C 206.957031 257.992188 208.292969 258.195312 209.621094 258.460938 C 210.949219 258.726562 212.261719 259.054688 213.558594 259.453125 C 214.855469 259.847656 216.128906 260.304688 217.378906 260.824219 C 218.628906 261.34375 219.851562 261.921875 221.046875 262.5625 C 222.242188 263.203125 223.402344 263.898438 224.527344 264.652344 C 225.652344 265.40625 226.738281 266.214844 227.785156 267.074219 C 228.832031 267.933594 229.835938 268.84375 230.792969 269.800781 C 231.75 270.761719 232.660156 271.761719 233.519531 272.8125 C 234.378906 273.859375 235.183594 274.945312 235.933594 276.070312 C 236.6875 277.199219 237.382812 278.359375 238.023438 279.554688 C 238.660156 280.75 239.238281 281.972656 239.757812 283.222656 C 240.277344 284.476562 240.734375 285.75 241.128906 287.046875 C 241.519531 288.34375 241.851562 289.65625 242.117188 290.984375 C 242.378906 292.3125 242.582031 293.648438 242.714844 295 C 242.847656 296.347656 242.914062 297.699219 242.917969 299.054688 C 242.914062 299.773438 242.878906 300.492188 242.808594 301.207031 C 242.734375 301.925781 242.628906 302.636719 242.488281 303.34375 C 242.347656 304.050781 242.171875 304.75 241.960938 305.4375 C 241.75 306.125 241.507812 306.804688 241.230469 307.46875 C 240.957031 308.132812 240.648438 308.785156 240.308594 309.417969 C 239.96875 310.054688 239.597656 310.671875 239.195312 311.269531 C 238.796875 311.871094 238.367188 312.449219 237.910156 313.003906 C 237.453125 313.5625 236.96875 314.09375 236.460938 314.605469 C 235.949219 315.113281 235.417969 315.597656 234.859375 316.054688 C 234.304688 316.511719 233.726562 316.941406 233.125 317.339844 C 232.527344 317.742188 231.910156 318.109375 231.277344 318.449219 C 230.640625 318.789062 229.992188 319.097656 229.324219 319.375 C 228.660156 319.652344 227.984375 319.894531 227.292969 320.105469 C 226.605469 320.3125 225.90625 320.488281 225.199219 320.632812 C 224.492188 320.773438 223.78125 320.878906 223.066406 320.953125 C 222.347656 321.023438 221.628906 321.058594 220.910156 321.0625 Z M 141.363281 157.574219 C 140.976562 157.253906 140.625 156.898438 140.308594 156.507812 C 139.996094 156.117188 139.71875 155.695312 139.484375 155.25 C 139.253906 154.808594 139.0625 154.34375 138.921875 153.859375 C 138.78125 153.378906 138.6875 152.886719 138.640625 152.386719 C 138.597656 151.886719 138.601562 151.386719 138.652344 150.886719 C 138.707031 150.386719 138.808594 149.894531 138.957031 149.414062 C 139.109375 148.933594 139.304688 148.476562 139.542969 148.035156 C 139.785156 147.59375 140.066406 147.179688 140.390625 146.792969 C 140.710938 146.40625 141.070312 146.054688 141.460938 145.742188 C 141.851562 145.425781 142.269531 145.152344 142.714844 144.917969 C 143.160156 144.683594 143.625 144.496094 144.109375 144.355469 C 144.589844 144.214844 145.082031 144.121094 145.582031 144.078125 C 146.082031 144.03125 146.585938 144.039062 147.085938 144.089844 C 147.585938 144.144531 148.074219 144.246094 148.554688 144.398438 C 149.03125 144.550781 149.492188 144.746094 149.933594 144.988281 C 150.375 145.226562 150.789062 145.511719 151.175781 145.832031 L 164.433594 157.195312 C 165.027344 157.699219 165.53125 158.277344 165.949219 158.933594 C 166.363281 159.585938 166.671875 160.292969 166.875 161.042969 C 167.074219 161.792969 167.15625 162.558594 167.121094 163.332031 C 167.085938 164.109375 166.933594 164.863281 166.667969 165.59375 C 166.402344 166.324219 166.03125 166.996094 165.558594 167.613281 C 165.082031 168.226562 164.527344 168.757812 163.890625 169.203125 C 163.253906 169.648438 162.566406 169.988281 161.824219 170.21875 C 161.082031 170.453125 160.324219 170.570312 159.546875 170.566406 C 157.707031 170.554688 156.078125 169.960938 154.660156 168.789062 Z M 211.476562 154.433594 L 225.113281 142.046875 C 225.480469 141.707031 225.875 141.40625 226.300781 141.148438 C 226.722656 140.886719 227.167969 140.671875 227.636719 140.496094 C 228.105469 140.324219 228.582031 140.199219 229.074219 140.121094 C 229.566406 140.042969 230.0625 140.015625 230.558594 140.035156 C 231.058594 140.054688 231.546875 140.121094 232.03125 140.238281 C 232.515625 140.351562 232.984375 140.515625 233.4375 140.722656 C 233.890625 140.933594 234.316406 141.183594 234.722656 141.476562 C 235.125 141.765625 235.496094 142.097656 235.832031 142.460938 C 236.171875 142.828125 236.472656 143.222656 236.730469 143.648438 C 236.992188 144.070312 237.207031 144.519531 237.382812 144.984375 C 237.554688 145.453125 237.679688 145.933594 237.757812 146.421875 C 237.835938 146.914062 237.863281 147.410156 237.84375 147.910156 C 237.824219 148.40625 237.757812 148.898438 237.640625 149.382812 C 237.527344 149.867188 237.363281 150.335938 237.15625 150.785156 C 236.945312 151.238281 236.695312 151.667969 236.402344 152.070312 C 236.113281 152.472656 235.78125 152.84375 235.417969 153.183594 L 221.816406 165.757812 C 221.117188 166.40625 220.320312 166.902344 219.433594 167.25 C 218.542969 167.59375 217.621094 167.765625 216.667969 167.765625 C 215.902344 167.765625 215.15625 167.65625 214.429688 167.429688 C 213.699219 167.207031 213.019531 166.882812 212.390625 166.453125 C 211.757812 166.023438 211.207031 165.511719 210.730469 164.914062 C 210.253906 164.316406 209.878906 163.664062 209.597656 162.953125 C 209.320312 162.242188 209.152344 161.507812 209.097656 160.746094 C 209.039062 159.988281 209.097656 159.234375 209.269531 158.492188 C 209.441406 157.746094 209.71875 157.046875 210.101562 156.386719 C 210.484375 155.726562 210.953125 155.136719 211.515625 154.621094 Z M 345.378906 236.476562 C 344.757812 236.839844 344.101562 237.105469 343.402344 237.28125 C 342.707031 237.457031 342 237.527344 341.28125 237.503906 C 340.5625 237.476562 339.863281 237.347656 339.183594 237.125 C 338.5 236.898438 337.863281 236.582031 337.273438 236.175781 C 321.683594 225.351562 304.824219 217.117188 286.703125 211.476562 L 286.703125 231.703125 C 286.707031 232.769531 286.492188 233.792969 286.066406 234.765625 C 285.636719 235.742188 285.027344 236.589844 284.242188 237.3125 C 283.453125 238.035156 282.550781 238.570312 281.535156 238.914062 C 280.519531 239.257812 279.476562 239.378906 278.410156 239.28125 C 276.808594 239.132812 275.207031 239.140625 273.609375 239.292969 C 272.007812 239.449219 270.4375 239.753906 268.894531 240.203125 C 267.351562 240.652344 265.863281 241.242188 264.433594 241.972656 C 263 242.703125 261.648438 243.5625 260.378906 244.546875 C 257.589844 246.746094 255.199219 249.316406 253.210938 252.257812 C 251.21875 255.199219 249.71875 258.375 248.710938 261.78125 C 248.566406 262.257812 248.375 262.714844 248.140625 263.152344 C 247.90625 263.589844 247.628906 264.003906 247.3125 264.386719 C 246.996094 264.773438 246.644531 265.121094 246.257812 265.4375 C 245.871094 265.753906 245.460938 266.027344 245.019531 266.261719 C 244.582031 266.496094 244.121094 266.683594 243.644531 266.828125 C 243.167969 266.96875 242.683594 267.066406 242.1875 267.113281 C 241.691406 267.160156 241.195312 267.160156 240.699219 267.109375 C 240.203125 267.0625 239.71875 266.964844 239.242188 266.816406 C 238.765625 266.671875 238.308594 266.480469 237.871094 266.246094 C 237.429688 266.011719 237.019531 265.734375 236.636719 265.417969 C 236.25 265.101562 235.902344 264.75 235.585938 264.363281 C 235.269531 263.980469 234.996094 263.566406 234.761719 263.125 C 234.527344 262.6875 234.339844 262.230469 234.195312 261.75 C 234.050781 261.273438 233.957031 260.789062 233.910156 260.292969 C 233.859375 259.796875 233.863281 259.300781 233.910156 258.804688 C 233.960938 258.3125 234.058594 257.824219 234.203125 257.347656 C 235.695312 252.421875 237.894531 247.835938 240.804688 243.589844 C 243.714844 239.339844 247.195312 235.632812 251.25 232.460938 C 254.203125 230.207031 257.402344 228.382812 260.847656 226.996094 C 264.292969 225.605469 267.863281 224.699219 271.554688 224.28125 L 271.554688 193.03125 C 271.554688 192.53125 271.601562 192.039062 271.699219 191.550781 C 271.796875 191.0625 271.9375 190.589844 272.128906 190.132812 C 272.320312 189.671875 272.554688 189.234375 272.828125 188.820312 C 273.105469 188.40625 273.421875 188.023438 273.773438 187.671875 C 274.125 187.320312 274.507812 187.007812 274.917969 186.730469 C 275.332031 186.453125 275.769531 186.222656 276.230469 186.03125 C 276.6875 185.839844 277.164062 185.695312 277.652344 185.601562 C 278.136719 185.503906 278.632812 185.453125 279.128906 185.453125 C 279.625 185.453125 280.117188 185.503906 280.605469 185.601562 C 281.09375 185.695312 281.566406 185.839844 282.027344 186.03125 C 282.488281 186.222656 282.925781 186.453125 283.335938 186.730469 C 283.75 187.007812 284.132812 187.320312 284.484375 187.671875 C 284.835938 188.023438 285.152344 188.40625 285.425781 188.820312 C 285.703125 189.234375 285.9375 189.671875 286.128906 190.132812 C 286.316406 190.589844 286.460938 191.0625 286.558594 191.550781 C 286.65625 192.039062 286.703125 192.53125 286.703125 193.03125 L 286.703125 195.683594 C 295.765625 198.273438 304.605469 201.480469 313.21875 205.304688 C 319.457031 208.101562 325.53125 211.21875 331.4375 214.660156 C 330.441406 209.984375 328.800781 205.546875 326.511719 201.351562 C 324.222656 197.152344 321.382812 193.371094 317.992188 190 C 314.179688 186.582031 310 183.691406 305.453125 181.324219 C 299.773438 178.230469 294.382812 174.695312 289.28125 170.71875 C 283.289062 165.949219 277.839844 160.625 272.933594 154.746094 C 268.027344 148.863281 263.765625 142.546875 260.152344 135.796875 C 259.960938 135.457031 259.808594 135.105469 259.695312 134.734375 C 255.910156 124.621094 252.121094 114.433594 248.332031 104.433594 C 245.339844 96.855469 242.234375 89.28125 239.054688 81.703125 C 235.199219 79.519531 231.207031 77.625 227.074219 76.019531 C 222.941406 74.417969 218.71875 73.125 214.398438 72.140625 C 210.074219 71.15625 205.707031 70.488281 201.289062 70.144531 C 196.871094 69.796875 192.453125 69.773438 188.03125 70.074219 C 181.988281 70.519531 176.050781 71.566406 170.21875 73.21875 C 164.390625 74.871094 158.785156 77.09375 153.410156 79.886719 C 153.410156 79.886719 153.410156 80.152344 153.410156 80.265625 C 152.96875 81.515625 152.246094 82.574219 151.25 83.445312 C 151.34375 90.742188 150.488281 97.921875 148.675781 104.988281 C 146.863281 112.054688 144.160156 118.765625 140.566406 125.113281 C 137.597656 130.246094 134.113281 135.003906 130.125 139.390625 C 126.132812 143.777344 121.722656 147.695312 116.894531 151.136719 C 106.25 160.050781 94.882812 167.929688 82.804688 174.773438 C 76.136719 178.5625 70.796875 181.136719 66.515625 183.21875 C 60.847656 185.4375 55.796875 188.632812 51.363281 192.804688 C 48.824219 195.5625 46.695312 198.613281 44.980469 201.949219 C 43.261719 205.285156 42.019531 208.789062 41.25 212.460938 C 46.652344 208.277344 52.472656 204.792969 58.710938 202.007812 C 67.816406 198.011719 77.324219 195.625 87.234375 194.847656 L 87.234375 193.066406 C 87.234375 192.570312 87.285156 192.078125 87.378906 191.589844 C 87.476562 191.101562 87.621094 190.628906 87.8125 190.167969 C 88 189.710938 88.234375 189.273438 88.511719 188.859375 C 88.789062 188.445312 89.101562 188.0625 89.453125 187.710938 C 89.804688 187.359375 90.1875 187.046875 90.601562 186.769531 C 91.015625 186.492188 91.453125 186.257812 91.910156 186.070312 C 92.371094 185.878906 92.84375 185.734375 93.332031 185.636719 C 93.820312 185.539062 94.3125 185.492188 94.8125 185.492188 C 95.308594 185.492188 95.800781 185.539062 96.289062 185.636719 C 96.777344 185.734375 97.25 185.878906 97.710938 186.070312 C 98.167969 186.257812 98.605469 186.492188 99.019531 186.769531 C 99.433594 187.046875 99.816406 187.359375 100.167969 187.710938 C 100.519531 188.0625 100.832031 188.445312 101.109375 188.859375 C 101.386719 189.273438 101.621094 189.710938 101.808594 190.167969 C 102 190.628906 102.144531 191.101562 102.242188 191.589844 C 102.335938 192.078125 102.386719 192.570312 102.386719 193.066406 L 102.386719 224.242188 C 106.242188 224.621094 109.984375 225.5 113.605469 226.875 C 117.230469 228.25 120.613281 230.074219 123.75 232.347656 C 125.855469 233.882812 127.824219 235.574219 129.660156 237.421875 C 131.496094 239.269531 133.171875 241.25 134.695312 243.363281 C 136.214844 245.476562 137.5625 247.695312 138.730469 250.023438 C 139.898438 252.347656 140.878906 254.753906 141.667969 257.234375 C 141.820312 257.707031 141.925781 258.191406 141.984375 258.6875 C 142.042969 259.183594 142.050781 259.675781 142.011719 260.175781 C 141.972656 260.671875 141.882812 261.15625 141.746094 261.636719 C 141.609375 262.117188 141.429688 262.578125 141.203125 263.019531 C 140.976562 263.464844 140.707031 263.882812 140.398438 264.269531 C 140.089844 264.660156 139.746094 265.019531 139.367188 265.339844 C 138.988281 265.664062 138.578125 265.945312 138.144531 266.1875 C 137.707031 266.429688 137.253906 266.628906 136.78125 266.78125 C 136.027344 267.003906 135.257812 267.121094 134.46875 267.121094 C 133.636719 267.160156 132.820312 267.066406 132.019531 266.835938 C 131.214844 266.605469 130.472656 266.25 129.789062 265.773438 C 129.101562 265.296875 128.511719 264.726562 128.015625 264.054688 C 127.523438 263.382812 127.148438 262.652344 126.894531 261.855469 C 125.792969 258.414062 124.191406 255.226562 122.089844 252.289062 C 119.988281 249.351562 117.484375 246.808594 114.582031 244.660156 C 113.1875 243.648438 111.710938 242.769531 110.15625 242.019531 C 108.605469 241.273438 106.996094 240.671875 105.335938 240.210938 C 103.671875 239.75 101.984375 239.445312 100.265625 239.289062 C 98.546875 239.132812 96.832031 239.128906 95.113281 239.28125 C 94.589844 239.328125 94.0625 239.320312 93.539062 239.257812 C 93.015625 239.195312 92.503906 239.082031 92.003906 238.910156 C 91.503906 238.742188 91.027344 238.523438 90.574219 238.253906 C 90.121094 237.988281 89.699219 237.675781 89.308594 237.316406 C 88.921875 236.960938 88.574219 236.566406 88.265625 236.140625 C 87.960938 235.710938 87.703125 235.253906 87.492188 234.769531 C 87.277344 234.285156 87.121094 233.785156 87.011719 233.269531 C 86.90625 232.753906 86.855469 232.230469 86.855469 231.703125 L 86.855469 209.960938 C 82.40625 210.378906 78.039062 211.210938 73.75 212.460938 L 74.128906 213.21875 C 76.082031 218.527344 77.039062 224.003906 77.007812 229.660156 C 77.007812 249.28125 65.871094 264.695312 51.667969 264.695312 C 39.773438 264.695312 30.074219 253.9375 27.195312 238.9375 C 26.136719 238.257812 25.296875 237.367188 24.679688 236.269531 C 24.0625 235.167969 23.738281 233.988281 23.710938 232.726562 C 23.484375 210.644531 29.015625 193.636719 40.113281 182.234375 C 45.804688 176.738281 52.320312 172.507812 59.660156 169.546875 C 63.976562 167.460938 68.863281 165.074219 75.074219 161.554688 C 86.472656 155.125 97.179688 147.699219 107.195312 139.28125 L 107.726562 138.863281 C 111.726562 136.074219 115.371094 132.878906 118.664062 129.28125 C 121.953125 125.683594 124.8125 121.769531 127.234375 117.539062 C 130.277344 112.15625 132.542969 106.46875 134.027344 100.464844 C 135.515625 94.464844 136.167969 88.375 135.984375 82.195312 C 124.097656 77.476562 113.050781 71.265625 102.839844 63.5625 C 94.464844 57.175781 86.890625 49.953125 80.113281 41.894531 C 80.105469 49.871094 81.457031 57.609375 84.167969 65.113281 C 85.328125 68.277344 86.707031 71.339844 88.308594 74.304688 C 89.90625 77.265625 91.710938 80.101562 93.71875 82.808594 C 95.726562 85.511719 97.914062 88.0625 100.285156 90.453125 C 102.660156 92.84375 105.191406 95.054688 107.878906 97.082031 C 108.277344 97.378906 108.644531 97.714844 108.976562 98.082031 C 109.308594 98.453125 109.605469 98.851562 109.859375 99.277344 C 110.113281 99.707031 110.324219 100.152344 110.492188 100.621094 C 110.65625 101.089844 110.777344 101.570312 110.847656 102.0625 C 110.921875 102.554688 110.945312 103.050781 110.917969 103.546875 C 110.894531 104.042969 110.820312 104.535156 110.699219 105.015625 C 110.574219 105.5 110.40625 105.964844 110.195312 106.414062 C 109.980469 106.863281 109.726562 107.289062 109.429688 107.6875 C 109.132812 108.085938 108.796875 108.453125 108.429688 108.785156 C 108.058594 109.117188 107.660156 109.414062 107.234375 109.667969 C 106.808594 109.921875 106.359375 110.132812 105.890625 110.300781 C 105.421875 110.46875 104.941406 110.585938 104.449219 110.660156 C 103.957031 110.730469 103.460938 110.753906 102.964844 110.730469 C 102.46875 110.703125 101.980469 110.632812 101.496094 110.511719 C 101.015625 110.386719 100.546875 110.222656 100.097656 110.007812 C 99.648438 109.792969 99.226562 109.539062 98.824219 109.242188 C 95.542969 106.773438 92.457031 104.082031 89.5625 101.167969 C 86.667969 98.253906 84 95.144531 81.554688 91.847656 C 79.105469 88.546875 76.910156 85.089844 74.960938 81.472656 C 73.011719 77.859375 71.335938 74.121094 69.925781 70.265625 C 68.5 66.273438 67.378906 62.199219 66.5625 58.039062 C 65.746094 53.882812 65.242188 49.6875 65.050781 45.453125 C 64.863281 41.21875 64.988281 36.992188 65.429688 32.777344 C 65.875 28.5625 66.625 24.40625 67.6875 20.304688 C 67.875 19.589844 68.160156 18.917969 68.542969 18.289062 C 68.925781 17.660156 69.390625 17.097656 69.933594 16.605469 C 70.480469 16.109375 71.085938 15.707031 71.75 15.386719 C 72.414062 15.070312 73.113281 14.855469 73.839844 14.738281 C 74.566406 14.625 75.296875 14.617188 76.027344 14.714844 C 76.753906 14.8125 77.457031 15.011719 78.128906 15.316406 C 78.800781 15.617188 79.414062 16.007812 79.972656 16.492188 C 80.527344 16.972656 81.003906 17.523438 81.402344 18.144531 C 85.488281 24.578125 90.113281 30.59375 95.28125 36.195312 C 100.449219 41.792969 106.074219 46.890625 112.160156 51.476562 C 121.613281 58.5625 131.855469 64.230469 142.878906 68.484375 C 149.632812 64.613281 156.726562 61.535156 164.167969 59.246094 C 171.609375 56.957031 179.207031 55.515625 186.96875 54.925781 C 192.097656 54.582031 197.226562 54.613281 202.351562 55.019531 C 207.476562 55.425781 212.546875 56.199219 217.558594 57.339844 C 222.570312 58.480469 227.472656 59.980469 232.269531 61.832031 C 237.0625 63.6875 241.699219 65.878906 246.175781 68.410156 C 257.027344 64.027344 266.9375 58.082031 275.910156 50.566406 C 281.46875 45.882812 286.570312 40.742188 291.214844 35.152344 C 295.863281 29.558594 299.976562 23.597656 303.5625 17.273438 C 303.941406 16.613281 304.40625 16.027344 304.960938 15.507812 C 305.519531 14.992188 306.136719 14.566406 306.820312 14.234375 C 307.503906 13.90625 308.222656 13.679688 308.972656 13.566406 C 309.722656 13.449219 310.472656 13.449219 311.226562 13.558594 C 311.976562 13.667969 312.695312 13.886719 313.382812 14.210938 C 314.066406 14.539062 314.691406 14.960938 315.25 15.472656 C 315.808594 15.984375 316.28125 16.570312 316.664062 17.226562 C 317.046875 17.882812 317.324219 18.578125 317.5 19.316406 C 318.453125 23.402344 319.125 27.527344 319.523438 31.703125 C 319.917969 35.875 320.03125 40.058594 319.859375 44.246094 C 319.691406 48.433594 319.242188 52.59375 318.507812 56.722656 C 317.777344 60.847656 316.773438 64.910156 315.492188 68.902344 C 314.285156 72.683594 312.824219 76.363281 311.101562 79.941406 C 309.378906 83.519531 307.417969 86.960938 305.214844 90.265625 C 303.007812 93.566406 300.585938 96.699219 297.941406 99.664062 C 295.300781 102.625 292.460938 105.390625 289.433594 107.953125 C 288.035156 109.109375 286.433594 109.691406 284.621094 109.695312 C 283.488281 109.703125 282.40625 109.46875 281.378906 108.992188 C 280.351562 108.515625 279.476562 107.839844 278.75 106.96875 C 278.433594 106.585938 278.15625 106.175781 277.917969 105.734375 C 277.679688 105.296875 277.488281 104.839844 277.34375 104.363281 C 277.199219 103.886719 277.097656 103.402344 277.046875 102.90625 C 277 102.410156 276.996094 101.914062 277.042969 101.417969 C 277.089844 100.921875 277.1875 100.433594 277.332031 99.957031 C 277.472656 99.480469 277.664062 99.019531 277.898438 98.582031 C 278.132812 98.140625 278.40625 97.726562 278.722656 97.339844 C 279.039062 96.957031 279.386719 96.605469 279.773438 96.289062 C 284.777344 92.046875 289.09375 87.199219 292.726562 81.738281 C 296.359375 76.277344 299.160156 70.421875 301.136719 64.167969 C 303.46875 57.105469 304.730469 49.859375 304.925781 42.425781 C 299.28125 49.632812 292.96875 56.199219 285.984375 62.121094 C 276.789062 69.882812 266.6875 76.195312 255.683594 81.0625 C 258.144531 86.96875 260.566406 92.917969 262.917969 98.824219 C 266.703125 108.824219 270.71875 118.976562 274.28125 129.128906 C 277.375 134.878906 281.015625 140.257812 285.207031 145.265625 C 289.398438 150.273438 294.050781 154.804688 299.167969 158.863281 C 303.671875 162.390625 308.445312 165.507812 313.484375 168.21875 C 319.066406 171.15625 324.191406 174.742188 328.863281 178.976562 C 340.871094 190.339844 347.804688 207.195312 349.582031 229.433594 C 349.609375 230.160156 349.53125 230.875 349.347656 231.578125 C 349.167969 232.285156 348.890625 232.949219 348.515625 233.574219 C 348.144531 234.199219 347.691406 234.757812 347.15625 235.25 C 346.625 235.746094 346.03125 236.152344 345.378906 236.476562 Z M 345.378906 236.476562 " fill-opacity="1" fill-rule="nonzero"/><path fill="#8c52ff" d="M 201.554688 272.804688 L 173.445312 272.804688 C 172.589844 272.804688 171.730469 272.847656 170.875 272.933594 C 170.023438 273.019531 169.171875 273.144531 168.332031 273.3125 C 167.488281 273.484375 166.65625 273.691406 165.835938 273.941406 C 165.015625 274.191406 164.207031 274.484375 163.414062 274.8125 C 162.621094 275.140625 161.84375 275.507812 161.085938 275.914062 C 160.332031 276.320312 159.59375 276.761719 158.882812 277.238281 C 158.167969 277.71875 157.480469 278.230469 156.816406 278.773438 C 156.152344 279.320312 155.515625 279.898438 154.910156 280.503906 C 154.304688 281.113281 153.726562 281.75 153.183594 282.414062 C 152.636719 283.078125 152.128906 283.765625 151.652344 284.480469 C 151.175781 285.195312 150.734375 285.929688 150.328125 286.6875 C 149.925781 287.445312 149.558594 288.222656 149.230469 289.015625 C 148.902344 289.808594 148.613281 290.617188 148.363281 291.441406 C 148.113281 292.261719 147.90625 293.09375 147.738281 293.9375 C 147.570312 294.777344 147.445312 295.628906 147.359375 296.484375 C 147.277344 297.335938 147.234375 298.195312 147.234375 299.054688 C 147.234375 299.503906 147.277344 299.949219 147.367188 300.390625 C 147.453125 300.832031 147.585938 301.261719 147.757812 301.675781 C 147.929688 302.09375 148.140625 302.488281 148.390625 302.863281 C 148.640625 303.234375 148.925781 303.582031 149.242188 303.902344 C 149.5625 304.21875 149.90625 304.503906 150.28125 304.753906 C 150.65625 305.003906 151.050781 305.214844 151.46875 305.386719 C 151.882812 305.558594 152.3125 305.6875 152.753906 305.777344 C 153.195312 305.863281 153.640625 305.910156 154.089844 305.910156 L 220.910156 305.910156 C 221.359375 305.910156 221.804688 305.863281 222.246094 305.777344 C 222.6875 305.6875 223.117188 305.558594 223.53125 305.386719 C 223.949219 305.214844 224.34375 305.003906 224.71875 304.753906 C 225.09375 304.503906 225.4375 304.21875 225.757812 303.902344 C 226.074219 303.582031 226.359375 303.234375 226.609375 302.863281 C 226.859375 302.488281 227.070312 302.09375 227.242188 301.675781 C 227.414062 301.261719 227.546875 300.832031 227.632812 300.390625 C 227.722656 299.949219 227.765625 299.503906 227.765625 299.054688 C 227.765625 298.195312 227.722656 297.335938 227.640625 296.484375 C 227.554688 295.628906 227.429688 294.777344 227.261719 293.9375 C 227.09375 293.09375 226.886719 292.261719 226.636719 291.441406 C 226.386719 290.617188 226.097656 289.808594 225.769531 289.015625 C 225.441406 288.222656 225.074219 287.445312 224.671875 286.6875 C 224.265625 285.929688 223.824219 285.195312 223.347656 284.480469 C 222.871094 283.765625 222.363281 283.078125 221.816406 282.414062 C 221.273438 281.75 220.695312 281.113281 220.089844 280.503906 C 219.484375 279.898438 218.847656 279.320312 218.183594 278.773438 C 217.519531 278.230469 216.832031 277.71875 216.117188 277.238281 C 215.40625 276.761719 214.667969 276.320312 213.914062 275.914062 C 213.15625 275.507812 212.378906 275.140625 211.585938 274.8125 C 210.792969 274.484375 209.984375 274.191406 209.164062 273.941406 C 208.34375 273.691406 207.511719 273.484375 206.667969 273.3125 C 205.828125 273.144531 204.976562 273.019531 204.125 272.933594 C 203.269531 272.847656 202.410156 272.804688 201.554688 272.804688 Z M 168.410156 299.316406 C 167.824219 299.320312 167.25 299.265625 166.675781 299.15625 C 166.105469 299.042969 165.546875 298.875 165.007812 298.65625 C 164.46875 298.433594 163.957031 298.164062 163.46875 297.839844 C 162.984375 297.519531 162.535156 297.152344 162.121094 296.738281 C 161.707031 296.328125 161.339844 295.882812 161.015625 295.398438 C 160.6875 294.914062 160.414062 294.402344 160.191406 293.863281 C 159.964844 293.324219 159.796875 292.769531 159.679688 292.199219 C 159.566406 291.628906 159.507812 291.050781 159.507812 290.46875 C 159.507812 289.882812 159.5625 289.304688 159.675781 288.734375 C 159.789062 288.164062 159.957031 287.605469 160.179688 287.070312 C 160.402344 286.53125 160.675781 286.019531 161 285.53125 C 161.324219 285.046875 161.691406 284.597656 162.105469 284.1875 C 162.515625 283.773438 162.964844 283.40625 163.449219 283.082031 C 163.933594 282.757812 164.445312 282.484375 164.984375 282.261719 C 165.523438 282.039062 166.078125 281.871094 166.652344 281.757812 C 167.222656 281.644531 167.800781 281.589844 168.382812 281.589844 C 168.96875 281.59375 169.542969 281.648438 170.117188 281.765625 C 170.6875 281.878906 171.242188 282.046875 171.78125 282.273438 C 172.320312 282.496094 172.828125 282.773438 173.3125 283.097656 C 173.796875 283.421875 174.246094 283.792969 174.65625 284.203125 C 175.066406 284.617188 175.433594 285.066406 175.757812 285.554688 C 176.078125 286.039062 176.351562 286.550781 176.570312 287.089844 C 176.792969 287.632812 176.960938 288.1875 177.070312 288.757812 C 177.183594 289.332031 177.238281 289.910156 177.234375 290.492188 C 177.242188 291.070312 177.195312 291.644531 177.089844 292.214844 C 176.984375 292.785156 176.824219 293.335938 176.609375 293.875 C 176.398438 294.414062 176.132812 294.925781 175.820312 295.414062 C 175.507812 295.898438 175.148438 296.351562 174.746094 296.765625 C 174.34375 297.183594 173.90625 297.558594 173.429688 297.886719 C 172.953125 298.21875 172.453125 298.5 171.921875 298.730469 C 171.390625 298.960938 170.84375 299.140625 170.277344 299.265625 C 169.710938 299.390625 169.140625 299.457031 168.5625 299.46875 Z M 205.832031 299.316406 C 205.25 299.320312 204.671875 299.265625 204.101562 299.15625 C 203.527344 299.042969 202.972656 298.875 202.433594 298.65625 C 201.894531 298.433594 201.378906 298.164062 200.894531 297.839844 C 200.410156 297.519531 199.960938 297.152344 199.546875 296.738281 C 199.132812 296.328125 198.761719 295.882812 198.4375 295.398438 C 198.113281 294.914062 197.839844 294.402344 197.613281 293.863281 C 197.390625 293.324219 197.21875 292.769531 197.105469 292.199219 C 196.992188 291.628906 196.933594 291.050781 196.933594 290.46875 C 196.929688 289.882812 196.988281 289.304688 197.101562 288.734375 C 197.214844 288.164062 197.382812 287.605469 197.605469 287.070312 C 197.828125 286.53125 198.101562 286.019531 198.425781 285.53125 C 198.746094 285.046875 199.117188 284.597656 199.527344 284.1875 C 199.941406 283.773438 200.390625 283.40625 200.875 283.082031 C 201.359375 282.757812 201.871094 282.484375 202.410156 282.261719 C 202.949219 282.039062 203.503906 281.871094 204.074219 281.757812 C 204.648438 281.644531 205.226562 281.589844 205.808594 281.589844 C 206.390625 281.59375 206.96875 281.648438 207.539062 281.765625 C 208.113281 281.878906 208.667969 282.046875 209.203125 282.273438 C 209.742188 282.496094 210.253906 282.773438 210.738281 283.097656 C 211.222656 283.421875 211.667969 283.792969 212.082031 284.203125 C 212.492188 284.617188 212.859375 285.066406 213.179688 285.554688 C 213.503906 286.039062 213.773438 286.550781 213.996094 287.089844 C 214.21875 287.632812 214.382812 288.1875 214.496094 288.757812 C 214.605469 289.332031 214.660156 289.910156 214.660156 290.492188 C 214.667969 291.078125 214.621094 291.660156 214.515625 292.234375 C 214.410156 292.8125 214.25 293.371094 214.03125 293.917969 C 213.8125 294.460938 213.546875 294.976562 213.226562 295.46875 C 212.90625 295.960938 212.539062 296.414062 212.128906 296.832031 C 211.71875 297.25 211.269531 297.621094 210.785156 297.949219 C 210.300781 298.28125 209.785156 298.558594 209.246094 298.785156 C 208.707031 299.011719 208.148438 299.179688 207.574219 299.296875 C 207 299.410156 206.417969 299.46875 205.832031 299.46875 Z M 205.832031 299.316406 " fill-opacity="1" fill-rule="nonzero"/><path fill="#8c52ff" d="M 212.160156 290.644531 C 212.160156 291.058594 212.117188 291.46875 212.039062 291.878906 C 211.957031 292.285156 211.835938 292.679688 211.675781 293.066406 C 211.519531 293.449219 211.324219 293.8125 211.09375 294.160156 C 210.863281 294.503906 210.601562 294.824219 210.304688 295.117188 C 210.011719 295.410156 209.691406 295.671875 209.347656 295.902344 C 209.003906 296.132812 208.636719 296.328125 208.253906 296.488281 C 207.871094 296.648438 207.476562 296.765625 207.066406 296.847656 C 206.660156 296.929688 206.25 296.96875 205.832031 296.96875 C 205.417969 296.96875 205.007812 296.929688 204.597656 296.847656 C 204.191406 296.765625 203.796875 296.648438 203.414062 296.488281 C 203.027344 296.328125 202.664062 296.132812 202.320312 295.902344 C 201.972656 295.671875 201.652344 295.410156 201.359375 295.117188 C 201.066406 294.824219 200.804688 294.503906 200.574219 294.160156 C 200.34375 293.8125 200.148438 293.449219 199.988281 293.066406 C 199.832031 292.679688 199.710938 292.285156 199.628906 291.878906 C 199.546875 291.46875 199.507812 291.058594 199.507812 290.644531 C 199.507812 290.230469 199.546875 289.816406 199.628906 289.410156 C 199.710938 289.003906 199.832031 288.605469 199.988281 288.222656 C 200.148438 287.839844 200.34375 287.476562 200.574219 287.128906 C 200.804688 286.785156 201.066406 286.464844 201.359375 286.171875 C 201.652344 285.878906 201.972656 285.613281 202.320312 285.382812 C 202.664062 285.152344 203.027344 284.957031 203.414062 284.800781 C 203.796875 284.640625 204.191406 284.519531 204.597656 284.441406 C 205.007812 284.359375 205.417969 284.316406 205.832031 284.316406 C 206.25 284.316406 206.660156 284.359375 207.066406 284.441406 C 207.476562 284.519531 207.871094 284.640625 208.253906 284.800781 C 208.636719 284.957031 209.003906 285.152344 209.347656 285.382812 C 209.691406 285.613281 210.011719 285.878906 210.304688 286.171875 C 210.601562 286.464844 210.863281 286.785156 211.09375 287.128906 C 211.324219 287.476562 211.519531 287.839844 211.675781 288.222656 C 211.835938 288.605469 211.957031 289.003906 212.039062 289.410156 C 212.117188 289.816406 212.160156 290.230469 212.160156 290.644531 Z M 212.160156 290.644531 " fill-opacity="1" fill-rule="nonzero"/><path fill="#8c52ff" d="M 174.734375 290.644531 C 174.734375 291.058594 174.695312 291.46875 174.613281 291.878906 C 174.53125 292.285156 174.414062 292.679688 174.253906 293.066406 C 174.09375 293.449219 173.898438 293.8125 173.667969 294.160156 C 173.4375 294.503906 173.175781 294.824219 172.882812 295.117188 C 172.589844 295.410156 172.269531 295.671875 171.921875 295.902344 C 171.578125 296.132812 171.214844 296.328125 170.828125 296.488281 C 170.445312 296.648438 170.050781 296.765625 169.644531 296.847656 C 169.234375 296.929688 168.824219 296.96875 168.410156 296.96875 C 167.992188 296.96875 167.582031 296.929688 167.175781 296.847656 C 166.769531 296.765625 166.371094 296.648438 165.988281 296.488281 C 165.605469 296.328125 165.238281 296.132812 164.894531 295.902344 C 164.550781 295.671875 164.230469 295.410156 163.9375 295.117188 C 163.640625 294.824219 163.378906 294.503906 163.148438 294.160156 C 162.917969 293.8125 162.722656 293.449219 162.566406 293.066406 C 162.40625 292.679688 162.285156 292.285156 162.203125 291.878906 C 162.125 291.46875 162.082031 291.058594 162.082031 290.644531 C 162.082031 290.230469 162.125 289.816406 162.203125 289.410156 C 162.285156 289.003906 162.40625 288.605469 162.566406 288.222656 C 162.722656 287.839844 162.917969 287.476562 163.148438 287.128906 C 163.378906 286.785156 163.640625 286.464844 163.9375 286.171875 C 164.230469 285.878906 164.550781 285.613281 164.894531 285.382812 C 165.238281 285.152344 165.605469 284.957031 165.988281 284.800781 C 166.371094 284.640625 166.765625 284.519531 167.175781 284.441406 C 167.582031 284.359375 167.992188 284.316406 168.410156 284.316406 C 168.824219 284.316406 169.234375 284.359375 169.644531 284.441406 C 170.050781 284.519531 170.445312 284.640625 170.828125 284.800781 C 171.214844 284.957031 171.578125 285.152344 171.921875 285.382812 C 172.269531 285.613281 172.589844 285.878906 172.882812 286.171875 C 173.175781 286.464844 173.4375 286.785156 173.667969 287.128906 C 173.898438 287.476562 174.09375 287.839844 174.253906 288.222656 C 174.414062 288.605469 174.53125 289.003906 174.613281 289.410156 C 174.695312 289.816406 174.734375 290.230469 174.734375 290.644531 Z M 174.734375 290.644531 " fill-opacity="1" fill-rule="nonzero"/></svg>